<mxfile host="app.diagrams.net" modified="2024-09-23T12:10:20.902Z" agent="Mozilla/5.0 (Windows NT 10.0; Win64; x64) AppleWebKit/537.36 (KHTML, like Gecko) Chrome/128.0.0.0 Safari/537.36" etag="TUfcidFZtlhmkw3Nt3Fa" version="24.2.3" type="device">
  <diagram name="Страница — 1" id="wMcQRdpTFGk_c6MkjCwB">
    <mxGraphModel dx="1434" dy="790" grid="1" gridSize="10" guides="1" tooltips="1" connect="1" arrows="1" fold="1" page="1" pageScale="1" pageWidth="827" pageHeight="1169" math="0" shadow="0">
      <root>
        <mxCell id="0" />
        <mxCell id="1" parent="0" />
        <mxCell id="Hlw5rizYlZWDjPvG_OEh-1" value="Сотрудник склада" style="shape=umlActor;verticalLabelPosition=bottom;verticalAlign=top;html=1;outlineConnect=0;" vertex="1" parent="1">
          <mxGeometry x="40" y="250" width="30" height="60" as="geometry" />
        </mxCell>
        <mxCell id="Hlw5rizYlZWDjPvG_OEh-2" value="Бухгалтер" style="shape=umlActor;verticalLabelPosition=bottom;verticalAlign=top;html=1;outlineConnect=0;" vertex="1" parent="1">
          <mxGeometry x="720" y="250" width="30" height="60" as="geometry" />
        </mxCell>
        <mxCell id="Hlw5rizYlZWDjPvG_OEh-6" value="Учет продажи товара" style="ellipse;whiteSpace=wrap;html=1;" vertex="1" parent="1">
          <mxGeometry x="140" y="300" width="120" height="80" as="geometry" />
        </mxCell>
        <mxCell id="Hlw5rizYlZWDjPvG_OEh-7" value="Авторизация" style="ellipse;whiteSpace=wrap;html=1;" vertex="1" parent="1">
          <mxGeometry x="344" y="30" width="140" height="40" as="geometry" />
        </mxCell>
        <mxCell id="Hlw5rizYlZWDjPvG_OEh-8" value="" style="endArrow=none;html=1;rounded=0;entryX=0;entryY=0.5;entryDx=0;entryDy=0;" edge="1" parent="1" target="Hlw5rizYlZWDjPvG_OEh-5">
          <mxGeometry width="50" height="50" relative="1" as="geometry">
            <mxPoint x="70" y="290" as="sourcePoint" />
            <mxPoint x="-170" y="280" as="targetPoint" />
          </mxGeometry>
        </mxCell>
        <mxCell id="Hlw5rizYlZWDjPvG_OEh-9" value="" style="endArrow=none;html=1;rounded=0;entryX=0;entryY=0.5;entryDx=0;entryDy=0;" edge="1" parent="1" target="Hlw5rizYlZWDjPvG_OEh-6">
          <mxGeometry width="50" height="50" relative="1" as="geometry">
            <mxPoint x="70" y="290" as="sourcePoint" />
            <mxPoint x="154" y="240" as="targetPoint" />
          </mxGeometry>
        </mxCell>
        <mxCell id="Hlw5rizYlZWDjPvG_OEh-13" value="Отчеты" style="ellipse;whiteSpace=wrap;html=1;" vertex="1" parent="1">
          <mxGeometry x="560" y="240" width="120" height="80" as="geometry" />
        </mxCell>
        <mxCell id="Hlw5rizYlZWDjPvG_OEh-14" value="Отчет по остатком товаров" style="ellipse;whiteSpace=wrap;html=1;" vertex="1" parent="1">
          <mxGeometry x="354" y="320" width="120" height="80" as="geometry" />
        </mxCell>
        <mxCell id="Hlw5rizYlZWDjPvG_OEh-15" value="" style="endArrow=none;html=1;rounded=0;entryX=1;entryY=0.5;entryDx=0;entryDy=0;" edge="1" parent="1" target="Hlw5rizYlZWDjPvG_OEh-13">
          <mxGeometry width="50" height="50" relative="1" as="geometry">
            <mxPoint x="720" y="280" as="sourcePoint" />
            <mxPoint x="490" y="250" as="targetPoint" />
          </mxGeometry>
        </mxCell>
        <mxCell id="Hlw5rizYlZWDjPvG_OEh-16" value="&amp;lt;&amp;lt;include&amp;gt;&amp;gt;" style="html=1;verticalAlign=bottom;labelBackgroundColor=none;endArrow=open;endFill=0;dashed=1;rounded=0;exitX=0;exitY=0.5;exitDx=0;exitDy=0;entryX=1;entryY=0.5;entryDx=0;entryDy=0;" edge="1" parent="1" source="Hlw5rizYlZWDjPvG_OEh-13" target="Hlw5rizYlZWDjPvG_OEh-14">
          <mxGeometry width="160" relative="1" as="geometry">
            <mxPoint x="390" y="280" as="sourcePoint" />
            <mxPoint x="550" y="280" as="targetPoint" />
          </mxGeometry>
        </mxCell>
        <mxCell id="Hlw5rizYlZWDjPvG_OEh-17" value="&amp;lt;&amp;lt;include&amp;gt;&amp;gt;" style="html=1;verticalAlign=bottom;labelBackgroundColor=none;endArrow=open;endFill=0;dashed=1;rounded=0;entryX=0;entryY=0.5;entryDx=0;entryDy=0;exitX=1;exitY=0.5;exitDx=0;exitDy=0;" edge="1" parent="1" source="Hlw5rizYlZWDjPvG_OEh-6" target="Hlw5rizYlZWDjPvG_OEh-14">
          <mxGeometry width="160" relative="1" as="geometry">
            <mxPoint x="250" y="330" as="sourcePoint" />
            <mxPoint x="550" y="280" as="targetPoint" />
          </mxGeometry>
        </mxCell>
        <mxCell id="Hlw5rizYlZWDjPvG_OEh-19" value="" style="endArrow=none;html=1;rounded=0;entryX=0;entryY=0.5;entryDx=0;entryDy=0;" edge="1" parent="1" target="Hlw5rizYlZWDjPvG_OEh-7">
          <mxGeometry width="50" height="50" relative="1" as="geometry">
            <mxPoint x="70" y="290" as="sourcePoint" />
            <mxPoint x="490" y="250" as="targetPoint" />
          </mxGeometry>
        </mxCell>
        <mxCell id="Hlw5rizYlZWDjPvG_OEh-20" value="" style="endArrow=none;html=1;rounded=0;entryX=1;entryY=0.5;entryDx=0;entryDy=0;" edge="1" parent="1" target="Hlw5rizYlZWDjPvG_OEh-7">
          <mxGeometry width="50" height="50" relative="1" as="geometry">
            <mxPoint x="720" y="280" as="sourcePoint" />
            <mxPoint x="490" y="250" as="targetPoint" />
          </mxGeometry>
        </mxCell>
        <mxCell id="Hlw5rizYlZWDjPvG_OEh-21" value="" style="swimlane;startSize=0;" vertex="1" parent="1">
          <mxGeometry x="130" y="20" width="560" height="410" as="geometry" />
        </mxCell>
        <mxCell id="Hlw5rizYlZWDjPvG_OEh-5" value="Учет поступления товара" style="ellipse;whiteSpace=wrap;html=1;" vertex="1" parent="Hlw5rizYlZWDjPvG_OEh-21">
          <mxGeometry x="40" y="180" width="120" height="80" as="geometry" />
        </mxCell>
      </root>
    </mxGraphModel>
  </diagram>
</mxfile>
